<svg width="60" height="60" viewBox="0 0 60 60" fill="none" xmlns="http://www.w3.org/2000/svg">
<path d="M25 54.5859C24.9829 54.6254 24.9501 54.6998 24.8906 54.7812C24.8382 54.8529 24.7098 55.0176 24.4766 55.1172C24.1929 55.2375 23.879 55.2162 23.625 55.0859C23.4177 54.9791 23.3036 54.8244 23.2578 54.7578L23.25 54.75C23.1867 54.8389 23.0813 54.9836 22.8906 55.0781C22.7344 55.1553 22.535 55.1986 22.3203 55.1719C22.1121 55.1455 21.9497 55.0558 21.8438 54.9766C21.7957 54.9405 21.7696 54.8886 21.7344 54.8516C21.6625 54.8647 21.5844 54.8868 21.5 54.8828C21.3807 54.8768 21.2786 54.8481 21.1875 54.8125C21.1459 54.8303 21.1033 54.8464 21.0547 54.8594C21.0328 54.8768 21.025 54.9131 21 54.9297C20.7255 55.1115 20.3404 55.1682 19.9922 54.9922C19.8361 54.9128 19.738 54.8009 19.6719 54.7188C19.5687 54.7671 19.4506 54.813 19.3047 54.8203C19.2944 54.8208 19.2835 54.8123 19.2734 54.8125C19.1193 54.9234 18.8846 55.0471 18.5703 55.0078C18.5206 55.0014 18.4815 54.9653 18.4375 54.9531C18.3315 55.0001 18.2077 55.0508 18.0625 55.0547C17.8567 55.0597 17.6806 54.9973 17.5469 54.9219C17.5006 54.8957 17.4667 54.8571 17.4297 54.8281C17.3941 54.8297 17.3578 54.8462 17.3203 54.8438C17.2794 54.841 17.2407 54.8195 17.2031 54.8125C17.1556 54.8479 17.1099 54.8995 17.0469 54.9297C16.8209 55.0371 16.5785 55.0249 16.3516 54.9609L16.3438 54.9766C16.2723 55.0183 16.1956 55.0476 16.1172 55.0703C15.9494 55.1738 15.7151 55.2761 15.4141 55.2188C15.241 55.1853 15.1077 55.1136 15.0078 55.0391C14.8973 55.099 14.7624 55.1622 14.5938 55.1719C14.374 55.1842 14.1875 55.118 14.0469 55.0391C13.9181 55.0481 13.7857 55.0438 13.6562 55C13.4805 54.9405 13.3595 54.8416 13.2812 54.7656C13.2675 54.7584 13.2551 54.7498 13.2422 54.7422C13.0579 54.8462 12.8108 54.9228 12.5312 54.8594C12.4888 54.8496 12.4515 54.8184 12.4141 54.8047C12.3078 54.9253 12.1188 55.1064 11.8047 55.1484C11.688 55.1637 11.5797 55.1508 11.4844 55.1328C11.365 55.1532 11.2576 55.1505 11.1562 55.1328C10.9811 55.1582 10.806 55.1528 10.6406 55.0859C10.6096 55.0733 10.5904 55.038 10.5625 55.0234C10.5136 55.017 10.4667 55.0126 10.4219 55C10.3782 54.9993 10.335 54.9916 10.2891 54.9844C10.2269 55.0023 10.1593 55.0027 10.0859 55.0078C9.89297 55.1308 9.61979 55.2525 9.26562 55.1406C9.20036 55.1199 9.15434 55.0679 9.10156 55.0391C8.91161 55.1307 8.6606 55.1888 8.35938 55.0859C8.24528 55.0465 8.15435 54.9885 8.07812 54.9297C7.97302 54.936 7.85566 54.9258 7.73438 54.8906C7.37961 54.7869 7.20958 54.527 7.17188 54.4688C7.07785 54.3233 7.04494 54.1795 7.03906 54.1562C7.02629 54.1071 7.01291 54.0613 7.00781 54.0312L6.96094 53.7188L6.85156 53.7109C6.82719 53.708 6.77717 53.706 6.72656 53.6953C6.70173 53.69 6.65644 53.6753 6.60156 53.6562C6.5806 53.649 6.40047 53.5949 6.23438 53.4375C6.16355 53.3704 6.07696 53.2341 6.00781 53.0469C5.93957 52.9733 5.86584 52.8742 5.8125 52.7422C5.70837 52.4838 5.74394 52.233 5.82812 52.0156C5.76373 51.8836 5.70188 51.7208 5.71094 51.5312C5.71378 51.4757 5.73158 51.4247 5.74219 51.375C5.71864 51.1601 5.75743 50.944 5.86719 50.7578C5.89328 50.7137 5.93248 50.6837 5.96094 50.6484C5.9505 50.5865 5.95807 50.5231 5.96094 50.4531C5.9293 50.4025 5.88437 50.3546 5.85938 50.2891C5.75845 50.0226 5.77732 49.737 5.89062 49.5L5.90625 49.4609L5.92188 49.4297L6.16406 49.1094C6.24555 49.0368 6.31779 48.9989 6.34375 48.9844C6.40512 48.95 6.46067 48.9283 6.5 48.9141C6.45979 48.8783 6.40541 48.8529 6.36719 48.8047C6.24659 48.6516 6.11374 48.3873 6.15625 48.0547C6.19594 47.7476 6.36504 47.5529 6.46094 47.4609C6.47915 47.4435 6.50513 47.437 6.52344 47.4219C6.50794 47.3524 6.49163 47.2773 6.49219 47.1953C6.49256 47.1423 6.51601 47.0945 6.52344 47.0469C6.49907 47.0382 6.46663 47.0367 6.4375 47.0234C6.40974 47.0112 6.13547 46.8947 5.96875 46.5859C5.85677 46.378 5.8107 46.1041 5.89062 45.8281C5.93433 45.6782 6.01104 45.5676 6.07812 45.4844C6.06613 45.4732 6.04315 45.4732 6.03125 45.4609C5.93943 45.3655 5.79833 45.1831 5.75781 44.9141C5.71429 44.625 5.80414 44.3772 5.91406 44.2109C5.9739 44.1205 6.05276 44.0619 6.11719 44.0078C6.0792 43.8988 6.0537 43.7866 6.05469 43.6719C6.00179 43.5924 5.94606 43.4966 5.91406 43.375C5.74884 42.7446 6.20174 42.3656 6.29688 42.2969L6.35156 42.2656L6.39844 42.2266C6.38583 42.201 6.37041 42.1769 6.35938 42.1484C6.24153 42.0139 6.07738 41.7703 6.10156 41.4219C6.11823 41.1833 6.22105 41.0107 6.3125 40.8906C6.26291 40.8442 6.21457 40.7679 6.15625 40.6719C6.10829 40.6287 6.03996 40.5908 5.99219 40.5234C5.84091 40.3091 5.73877 39.9797 5.85938 39.625C5.87759 39.5718 5.91403 39.5285 5.9375 39.4844C5.81937 39.3106 5.72146 39.0625 5.78906 38.7344C5.84669 38.4571 6.00489 38.2774 6.09375 38.1953C6.11564 38.1752 6.14317 38.1646 6.16406 38.1484C6.17603 38.1188 6.18035 38.0835 6.19531 38.0547C6.25705 37.9364 6.3386 37.8522 6.40625 37.7891C6.36445 37.6455 6.32988 37.4795 6.375 37.2891L6.32812 37.25C6.25744 37.1993 6.0947 37.0738 5.99219 36.8438C5.8669 36.5609 5.88419 36.2448 6.01562 35.9844C6.08987 35.8383 6.199 35.7509 6.27344 35.6875C6.30402 35.5265 6.35521 35.4001 6.42188 35.3047H6.40625C6.34972 35.2722 6.16983 35.1644 6.03906 34.9375C5.85782 34.6219 5.85797 34.2368 6.03906 33.9297C6.04419 33.921 6.05723 33.9146 6.0625 33.9062C6.08045 33.7285 6.14159 33.5793 6.21875 33.4609C6.22401 33.4082 6.23018 33.3592 6.24219 33.3125C6.17405 33.2278 6.11971 33.1157 6.07812 32.9766C5.98899 32.8701 5.87835 32.7208 5.84375 32.5C5.81358 32.3034 5.85206 32.1327 5.90625 31.9922C5.90384 31.963 5.88267 31.9355 5.88281 31.9062C5.83349 31.8338 5.78335 31.7427 5.75 31.6328C5.67953 31.3998 5.70219 31.1592 5.78906 30.9531L5.82031 30.875C5.83313 30.845 5.86035 30.8238 5.875 30.7969C5.89481 30.7159 5.91692 30.6397 5.95312 30.5703C5.9443 30.5266 5.90924 30.4861 5.90625 30.4375C5.89513 30.2492 5.94128 30.0884 6 29.9609C5.93353 29.8684 5.86192 29.7537 5.82812 29.6016C5.76146 29.2985 5.86439 29.0573 5.96875 28.8828C5.80931 28.6048 5.7759 28.2484 5.92969 27.9375C6.04759 27.7011 6.22601 27.5794 6.28906 27.5391L6.29688 27.5312C6.30793 27.507 6.31577 27.4833 6.32812 27.4609C6.2697 27.3657 6.20342 27.2506 6.17969 27.1016C6.16389 27.0016 6.19193 26.9082 6.20312 26.8203C6.10486 26.7058 5.98124 26.5372 5.95312 26.2891C5.91385 25.9342 6.07302 25.6768 6.19531 25.5312C6.18555 25.4428 6.17043 25.3481 6.1875 25.25C6.18992 25.2362 6.20023 25.2242 6.20312 25.2109C6.17237 25.1668 6.11955 25.1334 6.09375 25.0781C6.01133 24.9 5.97702 24.6796 6.02344 24.4531C6.03875 24.3792 6.0755 24.3171 6.10156 24.2578C6.0921 24.2031 6.06233 24.1475 6.0625 24.0859C6.06394 23.7753 6.20642 23.5509 6.3125 23.4297C6.41271 23.3159 6.51806 23.2486 6.57031 23.2188V23.2109C6.48311 23.1672 6.33953 23.1129 6.22656 22.9766C6.10809 22.8333 5.96771 22.5782 6 22.2422C6.00383 22.2037 6.03159 22.168 6.03906 22.1328C6.0304 22.1237 6.00857 22.1269 6 22.1172C5.90821 22.0128 5.78798 21.8281 5.75781 21.5703C5.72678 21.2977 5.81153 21.0637 5.91406 20.9062C6.07046 20.6671 6.28045 20.5608 6.32812 20.5391L6.25781 20.5156C6.21028 20.4932 6.08927 20.4279 5.96875 20.3047C5.83609 20.169 5.62467 19.8622 5.69531 19.4375C5.72614 19.2547 5.79827 19.1115 5.875 19.0078L6.08594 18.7969C6.081 18.7351 6.07809 18.6704 6.08594 18.6016C6.1085 18.4052 6.18029 18.2513 6.25781 18.1406C6.23473 18.128 6.20418 18.1254 6.17969 18.1094C6.11992 18.0703 5.70957 17.7957 5.71875 17.2422V17.1719L5.78125 16.8516C5.79348 16.8174 5.81334 16.7883 5.82812 16.7578C5.79856 16.6457 5.77064 16.5203 5.78906 16.375C5.82797 16.0751 5.98943 15.8759 6.08594 15.7812C6.12088 15.747 6.16288 15.7275 6.19531 15.7031C6.18617 15.6718 6.16268 15.6435 6.15625 15.6094C6.09407 15.2775 6.2181 15.0352 6.33594 14.8672C6.24261 14.7652 6.11901 14.6057 6.07812 14.3672C6.07374 14.3412 6.08827 14.3142 6.08594 14.2891C6.08134 14.2819 6.067 14.2809 6.0625 14.2734C5.89248 13.9915 5.85864 13.6199 6.02344 13.2969L6.03125 13.2891C6.0223 13.274 6.00064 13.2661 5.99219 13.25C5.91619 13.1053 5.87921 12.9244 5.89062 12.7266C5.88112 12.6959 5.85845 12.6665 5.85156 12.6328C5.79984 12.3776 5.85584 12.1421 5.95312 11.9609C5.99334 11.8866 6.0545 11.834 6.10156 11.7812C6.02783 11.6662 5.96351 11.5159 5.94531 11.3281C5.90942 11.2712 5.86296 11.2089 5.83594 11.1328C5.73887 10.8563 5.7735 10.5717 5.89062 10.3438C5.91864 10.2897 5.96856 10.2525 6 10.2109C5.97104 10.1155 5.94884 10.005 5.95312 9.88281C5.95648 9.79619 5.97963 9.72007 6 9.64844C5.99227 9.60558 5.97096 9.56306 5.96875 9.51562C5.95327 9.15834 6.13164 8.92205 6.25781 8.78906C6.264 8.7652 6.26583 8.74125 6.27344 8.71875C6.24957 8.68644 6.20922 8.66389 6.1875 8.625C6.01588 8.31668 6.0158 7.9427 6.1875 7.64062C6.31544 7.4166 6.49636 7.3078 6.55469 7.27344C6.63179 7.22805 6.69951 7.19983 6.73438 7.1875L6.83594 7.14844L6.9375 7.11719L7.08594 7.09375L7.09375 6.97656L7.13281 6.73438C7.13885 6.70505 7.16078 6.60381 7.21094 6.49219C7.23172 6.44603 7.30028 6.29514 7.45312 6.15625C7.53931 6.078 7.68039 5.9726 7.88281 5.92188C7.993 5.89427 8.10444 5.88174 8.21094 5.89062C8.34956 5.79176 8.54536 5.70609 8.80469 5.71094C8.98603 5.71483 9.13131 5.77213 9.25 5.83594C9.30872 5.84475 9.3745 5.83816 9.4375 5.85938C9.70729 5.95062 9.8528 6.13919 9.92969 6.25C9.94542 6.24739 9.96097 6.25183 9.97656 6.25C10.0339 6.19981 10.1169 6.14903 10.2188 6.10156C10.3281 6.01109 10.4928 5.90458 10.7266 5.875C10.9733 5.8439 11.1683 5.92482 11.3203 6.00781C11.517 5.96694 11.7137 5.97073 11.8984 6.04688C11.9254 6.02452 11.9444 5.98998 11.9766 5.96875C12.1924 5.82782 12.4846 5.77204 12.7812 5.85156C12.839 5.84805 12.8918 5.85327 12.9453 5.85938C13.1499 5.81156 13.3635 5.79901 13.5703 5.89062C13.6788 5.93897 13.7625 6.0039 13.8281 6.0625C14.0073 5.99899 14.2162 5.96167 14.4453 6.03125C14.6185 6.08429 14.7422 6.17858 14.8281 6.25781C14.8489 6.25097 14.8685 6.24009 14.8906 6.23438C14.9632 6.21577 15.0355 6.22199 15.1016 6.21875C15.26 6.12716 15.4752 6.03893 15.7422 6.07812C15.789 6.08516 15.8256 6.12071 15.8672 6.13281C15.929 6.10774 15.9951 6.09055 16.0703 6.07812C16.2115 5.96665 16.4398 5.85698 16.7266 5.86719C16.8905 5.76205 17.1228 5.65362 17.4219 5.70312L17.5 5.71875C17.7461 5.76092 17.9123 5.88497 18.0234 5.99219L18.0312 5.98438C18.5611 5.8132 18.9509 6.11599 19.0859 6.26562C19.1096 6.29194 19.1219 6.32601 19.1406 6.35156C19.1566 6.33283 19.1686 6.30805 19.1875 6.28906C19.2017 6.27478 19.2238 6.26601 19.2422 6.25C19.2963 6.16362 19.3817 6.05412 19.5078 5.96094C19.6513 5.85533 19.8783 5.75039 20.1641 5.76562C20.249 5.77029 20.32 5.80705 20.3906 5.82812C20.5872 5.7163 20.8575 5.62385 21.1719 5.71875C21.352 5.77384 21.474 5.87679 21.5625 5.96094C21.6499 5.97406 21.7268 5.99394 21.7969 6.02344C21.8668 5.96693 21.9353 5.89279 22.0391 5.85156C22.2639 5.76236 22.5173 5.75176 22.75 5.83594C22.957 5.91156 23.0887 6.04116 23.1562 6.11719C23.2804 6.25718 23.3385 6.39515 23.3516 6.42969C23.3726 6.48538 23.3845 6.53697 23.3906 6.5625C23.393 6.57275 23.3886 6.58417 23.3906 6.59375L23.4062 6.60156C23.4085 6.5919 23.4115 6.57994 23.4141 6.57031C23.4197 6.54811 23.462 6.39486 23.5703 6.24219C23.6259 6.16452 23.8054 5.93473 24.1484 5.85156C24.4394 5.78174 24.675 5.87204 24.8516 5.96875C25.061 5.868 25.3296 5.7899 25.6328 5.90625C25.9432 6.02583 26.0889 6.26177 26.125 6.32031C26.1779 6.40642 26.2068 6.48153 26.2188 6.51562C26.2291 6.54524 26.2353 6.57476 26.2422 6.60156H26.2578C26.2782 6.58199 26.2887 6.55041 26.3125 6.53125L26.3516 6.5L26.3828 6.46875L26.5859 6.34375C26.6691 6.30444 26.77 6.27314 26.8828 6.25781C26.8981 6.25575 26.9146 6.26696 26.9297 6.26562C26.9637 6.20883 27.0477 6.09179 27.1875 5.98438C27.3442 5.8648 27.6038 5.74499 27.9297 5.78906C28.2312 5.83008 28.4238 5.99064 28.5156 6.08594C28.5668 6.1391 28.5961 6.19783 28.625 6.24219C28.7242 6.22401 28.8339 6.21647 28.9531 6.23438C28.9936 6.24048 29.0259 6.2713 29.0625 6.28125C29.1107 6.2294 29.1569 6.1598 29.2344 6.10938C29.4715 5.95539 29.8108 5.88233 30.1484 6.01562C30.2929 6.07331 30.3935 6.16119 30.4688 6.23438C30.5313 6.1679 30.6149 6.09079 30.7266 6.03125C31.0634 5.85299 31.4477 5.88738 31.7344 6.07031C31.8135 6.12084 31.8485 6.2045 31.8984 6.25781C31.9941 6.27097 32.0761 6.30111 32.1562 6.33594C32.2083 6.26161 32.2929 6.13972 32.4453 6.04688C32.6942 5.89604 33.0296 5.84125 33.3516 5.97656C33.3973 5.99582 33.4306 6.03185 33.4688 6.05469C33.5797 5.97126 33.7465 5.87395 33.9688 5.85156C34.2133 5.82704 34.424 5.90092 34.5781 5.99219C34.594 6.0016 34.6024 6.02138 34.6172 6.03125C34.6542 6.03129 34.6894 6.04268 34.7266 6.04688C34.736 6.03876 34.7399 6.02364 34.75 6.01562C34.9511 5.85544 35.3017 5.72102 35.6953 5.85156C35.7221 5.86048 35.7411 5.88799 35.7656 5.89844C35.8536 5.86075 35.9524 5.82243 36.0703 5.8125C36.367 5.78859 36.6039 5.89925 36.75 6.00781C36.9126 6.129 37.0037 6.27458 37.0469 6.35938C37.1639 6.30527 37.3046 6.25716 37.4688 6.25781C37.4833 6.25793 37.5014 6.2649 37.5156 6.26562C37.5415 6.24402 37.5634 6.21561 37.5938 6.19531C37.7404 6.09726 37.9561 6.01351 38.2188 6.03125C38.3088 6.03758 38.3877 6.06944 38.4609 6.09375C38.4846 6.07667 38.5043 6.04723 38.5312 6.03125L38.5625 6.00781L38.6016 5.99219L38.8359 5.89062C38.9253 5.86443 39.025 5.84255 39.1328 5.84375C39.1543 5.84401 39.1746 5.85784 39.1953 5.85938C39.2452 5.85213 39.296 5.83533 39.3516 5.83594C39.7323 5.84065 39.9774 6.04813 40.0781 6.15625C40.1113 6.19198 40.1249 6.24022 40.1484 6.27344C40.1603 6.2596 40.1665 6.24037 40.1797 6.22656C40.2646 6.13852 40.4396 5.99195 40.7031 5.9375C40.8846 5.90048 41.0495 5.93119 41.1953 5.97656C41.3141 5.93048 41.4547 5.89587 41.6172 5.90625C41.859 5.92209 42.0302 6.03514 42.1484 6.125C42.4449 6.13865 42.6712 6.2725 42.7891 6.38281C42.8466 6.43668 42.8721 6.50608 42.9062 6.55469C42.9176 6.54945 42.9256 6.53619 42.9375 6.53125C43.1153 6.4574 43.2959 6.4535 43.4609 6.47656C43.4769 6.47155 43.491 6.45748 43.5078 6.45312C43.5489 6.44248 43.593 6.45843 43.6328 6.45312C43.6545 6.41063 43.6901 6.34674 43.7422 6.28125C43.8008 6.20801 43.9283 6.07249 44.1328 5.98438C44.1796 5.96448 44.2323 5.96565 44.2812 5.95312C44.3024 5.93817 44.3201 5.91244 44.3438 5.89844C44.4999 5.80646 44.7149 5.73906 44.9609 5.76562C45.1977 5.79206 45.3764 5.89696 45.4844 5.98438C45.6244 6.09864 45.6885 6.23915 45.7266 6.3125C45.7623 6.29476 45.8023 6.28783 45.8438 6.27344C45.9254 6.17458 46.0841 6.00923 46.3516 5.9375C46.7726 5.82605 47.1138 6.01416 47.2812 6.16406C47.3044 6.18494 47.3088 6.22134 47.3281 6.24219C47.3837 6.2383 47.4394 6.24337 47.5 6.25C47.6518 6.19833 47.834 6.16728 48.0469 6.21875C48.0783 6.22638 48.104 6.24795 48.1328 6.25781C48.1623 6.21911 48.1838 6.16559 48.2266 6.125C48.3698 5.98945 48.6655 5.81828 49.0547 5.875C49.0965 5.85491 49.1388 5.82775 49.1875 5.8125C49.3897 5.7495 49.5658 5.76577 49.7188 5.80469C49.7742 5.80668 49.8323 5.79247 49.8906 5.80469C50.1063 5.85013 50.256 5.96147 50.3516 6.04688C50.4138 6.05283 50.4742 6.07426 50.5391 6.09375C50.6973 5.97947 50.9278 5.8777 51.2344 5.91406C51.4587 5.9409 51.6177 6.04742 51.7266 6.13281C51.9529 6.06466 52.2 6.05095 52.4297 6.15625C52.6188 6.24369 52.7339 6.37243 52.7969 6.45312L52.875 6.5C53.1538 6.69007 53.2563 6.966 53.2734 7.00781L53.3125 7.09375L53.3281 7.15625C53.3391 7.15919 53.356 7.15283 53.3672 7.15625C53.4133 7.17003 53.736 7.26989 53.9375 7.60938C53.9877 7.69463 54.0083 7.78933 54.0312 7.88281C54.0694 7.88703 54.1256 7.88761 54.1797 7.89844C54.208 7.90417 54.2723 7.9193 54.3438 7.94531C54.3807 7.95888 54.4525 7.99045 54.5312 8.03906C54.5957 8.07914 54.7774 8.20157 54.8984 8.44531L54.9219 8.48438L54.9375 8.51562C55.0146 8.67158 55.0574 8.87129 55.0312 9.08594C55.025 9.13683 55.0046 9.18147 54.9922 9.22656C55.0226 9.32694 55.0446 9.43996 55.0391 9.5625C55.0327 9.69481 54.9953 9.80792 54.9531 9.90625C55.0046 9.96815 55.0823 10.0282 55.125 10.125C55.2322 10.3699 55.2444 10.6519 55.1406 10.9062C55.0522 11.1227 54.9109 11.2526 54.8359 11.3125C54.8007 11.3406 54.752 11.3469 54.7188 11.3672C54.7293 11.3864 54.7324 11.4087 54.7422 11.4297C54.832 11.5074 54.997 11.6801 55.0625 11.9531C55.1504 12.1367 55.215 12.3748 55.1328 12.6562C55.0968 12.7793 55.0191 12.8648 54.9609 12.9453C54.986 13.1716 54.9446 13.374 54.8594 13.5312C54.8015 13.6379 54.7226 13.7109 54.6562 13.7734C54.7345 13.8327 54.8757 13.9567 54.9688 14.1641C55.0954 14.4471 55.0782 14.7686 54.9453 15.0312C54.8596 15.1991 54.7332 15.2915 54.6562 15.3516C54.7248 15.5323 54.7734 15.7465 54.7031 15.9844C54.6914 16.0238 54.6556 16.0512 54.6406 16.0859C54.7234 16.1486 54.8619 16.2732 54.9531 16.4766C54.983 16.5436 54.9701 16.6191 54.9844 16.6875C55.0914 16.8049 55.2368 16.9944 55.2578 17.2812C55.2721 17.4781 55.2253 17.6424 55.1641 17.7734C55.2418 17.9797 55.2777 18.2228 55.1875 18.4688C55.0924 18.7255 54.9181 18.8663 54.8438 18.9219C54.783 18.9672 54.7151 18.9835 54.6641 19.0078C54.7269 19.0611 54.8193 19.1655 54.8984 19.3203C54.9791 19.4084 55.0808 19.5425 55.1328 19.7344C55.2091 20.0175 55.1536 20.2892 55.0391 20.4922L55.0156 20.5234L55 20.5625C54.9426 20.6643 54.856 20.7271 54.7891 20.7891C54.7655 20.931 54.7014 21.0412 54.6406 21.1406C54.6343 21.1779 54.6429 21.2159 54.6328 21.25V21.2578C54.6578 21.2675 54.6884 21.2741 54.7188 21.2891C54.7611 21.3101 54.9657 21.4138 55.1172 21.6484C55.2068 21.7876 55.2899 21.9861 55.2812 22.2266C55.2742 22.4048 55.2038 22.549 55.1406 22.6641C55.1503 22.6976 55.1732 22.7289 55.1797 22.7656C55.2378 23.0934 55.1172 23.3334 55 23.5C55.0549 23.5809 55.1158 23.675 55.1484 23.7969C55.2201 24.0653 55.1471 24.2892 55.0625 24.4688C55.0888 24.5698 55.1206 24.6796 55.1094 24.8047C55.0938 24.9774 55.025 25.111 54.9609 25.2188C54.9884 25.2894 55.02 25.3652 55.0312 25.4531C55.0827 25.8595 54.8799 26.1234 54.7422 26.2656V26.2734C54.7141 26.385 54.6643 26.4784 54.6172 26.5547C54.703 26.6796 54.7969 26.8548 54.8047 27.0859C54.8082 27.2022 54.7617 27.2982 54.7344 27.3906C54.7404 27.4205 54.7468 27.4477 54.75 27.4766C54.8391 27.5588 54.9412 27.6844 55.0078 27.8594C55.1828 28.3208 54.9788 28.7115 54.8047 28.8984C54.7551 28.9513 54.6873 28.9742 54.6406 29.0078C54.6713 29.0956 54.7076 29.1927 54.7109 29.3047H54.7031C54.7362 29.3195 54.7755 29.3296 54.8125 29.3516C54.8711 29.3866 54.9986 29.4689 55.1094 29.6172C55.2356 29.7863 55.357 30.064 55.2969 30.3984C55.2425 30.6981 55.0684 30.8858 54.9766 30.9688C54.9338 31.0072 54.8812 31.0222 54.8438 31.0469C54.8509 31.0894 54.8655 31.129 54.8672 31.1719L54.8906 31.1953L54.9219 31.2344C55.0229 31.3669 55.1295 31.5806 55.1328 31.8516C55.1344 32.04 55.0722 32.1939 55.0078 32.3203C55.0201 32.3572 55.0541 32.3884 55.0625 32.4297C55.0975 32.6033 55.0758 32.7581 55.0391 32.8906C55.0949 33.073 55.1203 33.2879 55.0391 33.5156C54.9876 33.6587 54.9077 33.7642 54.8359 33.8438C54.8682 33.9862 54.8762 34.1425 54.8359 34.3047C54.8071 34.4207 54.7599 34.5158 54.7109 34.5938C54.7125 34.6798 54.6887 34.7549 54.6719 34.8281C54.6746 34.8359 54.6771 34.8436 54.6797 34.8516C54.6865 34.86 54.6964 34.8661 54.7031 34.875C54.822 35.0337 54.943 35.2961 54.8984 35.6172C54.8652 35.855 54.7467 36.0192 54.6562 36.125L54.9922 36.3594C55.072 36.4452 55.1826 36.5937 55.2344 36.8047C55.2898 37.034 55.2636 37.2648 55.1797 37.4531C55.1476 37.525 55.0868 37.5712 55.0469 37.625C55.1176 37.7435 55.1794 37.8997 55.1875 38.0938C55.2031 38.4943 54.9878 38.753 54.875 38.8594C54.7961 38.9336 54.7112 38.9703 54.6562 39C54.7138 39.0308 54.8249 39.0947 54.9297 39.2109C55.0608 39.3565 55.2335 39.6495 55.1719 40.0391C55.1173 40.3829 54.91 40.5824 54.8203 40.6562C54.7208 40.7379 54.6282 40.7861 54.5859 40.8047C54.5288 40.8297 54.4734 40.834 54.4375 40.8438C54.5364 40.9729 54.6514 41.1651 54.6562 41.4297C54.6566 41.4539 54.6419 41.4769 54.6406 41.5C54.6508 41.5103 54.6696 41.5123 54.6797 41.5234C54.7745 41.6287 54.9097 41.8213 54.9375 42.0938C54.9662 42.3791 54.8642 42.6126 54.7578 42.7656C54.7276 42.809 54.6809 42.833 54.6484 42.8672C54.6435 42.9123 54.6525 42.9601 54.6406 43.0078C54.792 43.1385 55.0228 43.3919 55 43.8125V43.8516L54.9922 43.8906C54.977 44.1464 54.8673 44.3267 54.7656 44.4531C54.7714 44.5575 54.7438 44.6523 54.7188 44.75C54.7757 44.8669 54.8278 45.0073 54.8281 45.1797C54.8287 45.5074 54.6632 45.7189 54.5391 45.8516C54.5571 45.8625 54.5829 45.8697 54.6016 45.8828C54.6684 45.93 54.8052 46.0355 54.9062 46.2188C55.0259 46.4376 55.0691 46.7221 54.9766 47.0078C54.9683 47.0331 54.9471 47.0549 54.9375 47.0781C54.9966 47.1362 55.0631 47.2141 55.1172 47.3125C55.2682 47.5888 55.2794 47.9335 55.1328 48.2344C55.1193 48.2619 55.0929 48.2802 55.0781 48.3047C55.0737 48.3941 55.0691 48.4811 55.0391 48.5703C55.0753 48.7106 55.094 48.8676 55.0547 49.0391C55.1335 49.2068 55.1725 49.4259 55.1094 49.6875C55.1156 49.6976 55.1267 49.7082 55.1328 49.7188C55.2907 49.9955 55.3161 50.3461 55.1641 50.6562C55.1581 50.6683 55.139 50.676 55.1328 50.6875C55.1851 50.8462 55.2099 51.0373 55.1484 51.2578C55.1025 51.4216 55.017 51.5402 54.9375 51.6328C54.9338 51.6765 54.9306 51.7174 54.9219 51.7578C54.9788 51.8701 55.0338 52.005 55.0391 52.1719C55.0459 52.3911 54.9752 52.5625 54.8984 52.6953C54.8677 52.8712 54.8077 53.0245 54.7266 53.1328C54.6865 53.1862 54.6261 53.2128 54.5859 53.25C54.5803 53.2827 54.5854 53.3155 54.5781 53.3438C54.534 53.5146 54.4539 53.6497 54.3984 53.7344L54.1406 54.1328L53.8828 54.5234C53.8423 54.5853 53.7651 54.6978 53.6562 54.7969C53.5855 54.8611 53.2551 55.1469 52.7656 55.0625C52.7075 55.0523 52.6599 55.0173 52.6094 55C52.4867 55.1171 52.2293 55.3026 51.8594 55.2812C51.5081 55.2607 51.2846 55.0719 51.1875 54.9688C51.1433 54.9214 51.1234 54.8584 51.0938 54.8125C50.9912 54.8316 50.8802 54.8449 50.7656 54.8281C50.6873 54.8165 50.6184 54.7902 50.5547 54.7656C50.4729 54.7518 50.4031 54.725 50.3359 54.6953C50.2668 54.7163 50.1927 54.7445 50.1094 54.75C50.0598 54.7532 50.014 54.7297 49.9688 54.7266C49.956 54.7447 49.9525 54.7705 49.9375 54.7891C49.877 54.8629 49.7472 55.0005 49.5391 55.0859C49.2998 55.184 49.0314 55.1825 48.7891 55.0859C48.7357 55.0646 48.6915 55.0337 48.6484 55.0078C48.6234 55.033 48.6159 55.0774 48.5859 55.1016C48.4635 55.2001 48.2625 55.3169 47.9922 55.3281C47.7172 55.3394 47.5009 55.2349 47.3594 55.1328L47.2812 55.0859C47.2488 55.0625 47.2305 55.025 47.2031 55C47.0963 55.0728 46.9574 55.1561 46.7734 55.1797C46.4014 55.2265 46.1259 55.0553 45.9844 54.9297C45.9557 54.9041 45.9368 54.869 45.9141 54.8438C45.7633 55.0011 45.4721 55.2422 45.0156 55.1562C44.7683 55.1092 44.601 54.9802 44.5078 54.8906C44.4976 54.8901 44.4869 54.8992 44.4766 54.8984C44.1276 54.8707 43.904 54.6778 43.8125 54.5781C43.7547 54.515 43.7236 54.4471 43.6953 54.3984C43.6207 54.4079 43.5428 54.4231 43.4609 54.4141C43.4486 54.4127 43.4339 54.4003 43.4219 54.3984V54.4062C43.4144 54.4292 43.3647 54.5828 43.2422 54.7344C43.1764 54.815 43.0171 54.9825 42.75 55.0625C42.7038 55.0763 42.6546 55.0634 42.6094 55.0703C42.436 55.1413 42.2265 55.1918 41.9922 55.1328C41.9586 55.1242 41.9288 55.097 41.8984 55.0859C41.7337 55.1208 41.5538 55.1274 41.3672 55.0625C41.1882 54.9996 41.0649 54.8948 40.9844 54.8125C40.9574 54.8407 40.9409 54.8859 40.9062 54.9141C40.7402 55.0487 40.4451 55.1906 40.0781 55.1172C39.9286 55.0872 39.8116 55.0237 39.7188 54.9609C39.5679 55.0177 39.4087 55.0297 39.2422 55.0078C39.0826 55.1401 38.8375 55.2899 38.4844 55.2422C38.3041 55.2177 38.1663 55.1405 38.0625 55.0703C37.8954 55.2247 37.5492 55.4288 37.1094 55.3047L37.0703 55.2891L37.0391 55.2812C36.9931 55.2682 36.9539 55.2361 36.9141 55.2188C36.8281 55.2342 36.7351 55.2452 36.6328 55.2344C36.3826 55.2074 36.2077 55.0896 36.0938 54.9922C35.9283 55.1418 35.6111 55.365 35.1641 55.2422C35.1157 55.2288 35.0731 55.198 35.0312 55.1797C34.9693 55.1904 34.9065 55.2207 34.8359 55.2188C34.5241 55.2099 34.3024 55.0653 34.1875 54.9609C34.1707 54.9457 34.1633 54.9218 34.1484 54.9062C34.0677 54.9285 33.9839 54.9373 33.8906 54.9375C33.6051 55.0107 33.3154 54.9571 33.0938 54.8125L33.0547 54.7891L33.0156 54.7578C32.9582 54.7197 32.9235 54.6648 32.8828 54.625C32.6178 54.7189 32.3336 54.7258 32.0859 54.5938L32.0703 54.5781C32.0269 54.5815 31.9845 54.6119 31.9375 54.6094H31.8672C31.8493 54.6084 31.8298 54.5956 31.8125 54.5938C31.7841 54.6215 31.7701 54.6683 31.7344 54.6953C31.5241 54.8546 31.1757 54.9742 30.7969 54.8438C30.7807 54.8439 30.7657 54.8365 30.75 54.8359C30.6308 54.9046 30.4803 54.9778 30.2891 54.9844C30.2397 54.9861 30.194 54.9658 30.1484 54.9609C30.0189 55.0481 29.8421 55.148 29.6016 55.1484C29.2713 55.1488 29.0398 54.9914 28.9219 54.8828C28.8871 54.8507 28.8707 54.8061 28.8438 54.7734H28.8359C28.7746 54.8522 28.6967 54.9504 28.5781 55.0234C28.3972 55.134 28.1439 55.2057 27.8594 55.1484C27.8077 55.1379 27.7634 55.11 27.7188 55.0938C27.6587 55.0998 27.598 55.1309 27.5312 55.125C27.3404 55.1075 27.1898 55.0334 27.0781 54.9609C26.9772 54.9996 26.8659 55.024 26.7344 55.0234C26.6267 55.0643 26.5043 55.1053 26.3594 55.1016C26.0482 55.0933 25.8268 54.9485 25.7109 54.8438C25.6702 54.8068 25.6457 54.7614 25.6172 54.7266C25.5915 54.7288 25.5661 54.7497 25.5391 54.75C25.3097 54.7522 25.132 54.6683 25 54.5859ZM47.6719 54.8047C47.7302 54.8078 47.7889 54.7976 47.8516 54.7891C47.7877 54.8034 47.7302 54.8023 47.6719 54.8047ZM50.9297 9.51562C50.8697 9.59697 50.7185 9.78364 50.4375 9.875C50.131 9.97313 49.8586 9.89209 49.6562 9.78125C49.5518 9.81524 49.4523 9.85289 49.3438 9.85156C49.3259 9.87389 49.3187 9.90697 49.2969 9.92969C49.1555 10.0766 48.797 10.333 48.3125 10.2031L48.2734 10.1953L48.2344 10.1797C48.0919 10.1406 47.9864 10.067 47.8984 10C47.7259 10.1478 47.4269 10.3411 47 10.2266C46.7233 10.1523 46.5581 9.98305 46.4688 9.86719C46.3691 9.86537 46.2732 9.85069 46.1797 9.82031C46.025 9.8791 45.8385 9.91964 45.625 9.875C45.5873 9.86707 45.5574 9.83926 45.5234 9.82812C45.3725 9.88171 45.2046 9.91384 45.0234 9.88281C44.9545 9.8708 44.893 9.84233 44.8359 9.82031C44.7957 9.84564 44.76 9.88484 44.7109 9.90625C44.3981 10.0425 44.0612 10.0009 43.8047 9.85156C43.6869 9.78264 43.6204 9.68564 43.5625 9.61719C43.4271 9.62088 43.2952 9.5846 43.1641 9.53125C43.0596 9.59302 42.9313 9.66244 42.7656 9.67969C42.5597 9.70046 42.3825 9.64364 42.2422 9.57812C42.2309 9.60677 42.2283 9.64557 42.2109 9.67969C42.1829 9.73481 42.0988 9.89504 41.9219 10.0312L41.8828 10.0625L41.8516 10.0859C41.613 10.2691 41.2216 10.3853 40.8281 10.2109C40.8134 10.2044 40.803 10.1867 40.7891 10.1797C40.5808 10.1823 40.3982 10.1161 40.25 10.0234C40.0263 10.1064 39.7798 10.1206 39.5469 10.0312C39.4103 9.97852 39.3076 9.90232 39.2344 9.83594L39.2188 9.85156C39.1639 9.88398 39.0959 9.89131 39.0312 9.91406C38.9573 9.9809 38.8576 10.058 38.7266 10.1094C38.4018 10.2357 38.0737 10.171 37.8359 10.0234C37.7764 10.0386 37.7178 10.0743 37.6484 10.0781C37.402 10.0912 37.2096 10.0009 37.0703 9.91406C37.0494 9.92195 37.0303 9.94634 37.0078 9.95312C36.7982 10.0156 36.5922 9.98453 36.4062 9.92188C36.2906 10.0301 36.0587 10.2005 35.7266 10.2031C35.5453 10.2039 35.3932 10.154 35.2734 10.0938L35.2656 10.1016C34.9922 10.1906 34.7118 10.1525 34.4922 10.0391C34.3547 9.96757 34.2715 9.86629 34.2109 9.79688C34.1506 9.79112 34.094 9.78091 34.0391 9.76562C33.9929 9.78006 33.9512 9.81224 33.8984 9.82031C33.8858 9.83801 33.8826 9.86413 33.8672 9.88281C33.8042 9.95906 33.6694 10.1038 33.4453 10.1875C33.1987 10.2795 32.937 10.2582 32.7109 10.1641C32.5131 10.2581 32.2575 10.3305 31.9531 10.2188C31.9298 10.2102 31.9122 10.1894 31.8906 10.1797C31.8229 10.2044 31.7554 10.2479 31.6719 10.2578C31.3437 10.2962 31.0816 10.1661 30.9297 10.0469C30.8733 10.0025 30.8367 9.94516 30.7969 9.89844C30.7367 9.95952 30.6766 10.0533 30.5703 10.1094C30.3233 10.2387 30.0147 10.2647 29.7266 10.1484C29.5738 10.0867 29.465 9.99671 29.3906 9.92188C29.1433 9.90756 28.9665 9.80731 28.8438 9.71094C28.7999 9.78123 28.7678 9.88438 28.6797 9.96094C28.5588 10.066 28.3368 10.2001 28.0312 10.2031C27.7229 10.2054 27.492 10.0675 27.3672 9.96094C27.3346 9.93285 27.323 9.88822 27.2969 9.85938C27.2353 9.92151 27.1536 9.99154 27.0469 10.0469C26.7473 10.2012 26.3966 10.1957 26.1094 10.0391C26.0575 10.0106 26.0168 9.96921 25.9766 9.9375C25.836 9.99721 25.6712 10.0216 25.4688 9.99219C25.4495 9.99899 25.4345 10.0254 25.4141 10.0312L25.3828 10.0391L25.3438 10.0547C25.1521 10.1094 24.9781 10.093 24.8281 10.0547C24.7699 10.0751 24.7078 10.0841 24.6406 10.0938C24.5645 10.1348 24.4804 10.1814 24.375 10.2031C24.1476 10.2494 23.9465 10.1968 23.7812 10.125C23.5937 10.1562 23.4027 10.1517 23.2188 10.0703C22.9907 10.1615 22.7243 10.1976 22.4531 10.0781C22.188 9.96121 22.0494 9.76764 22.0078 9.70312L22 9.69531C21.8965 9.72142 21.7801 9.74064 21.6484 9.72656C21.4747 9.70757 21.3364 9.63974 21.2266 9.57031C21.1248 9.71063 20.8173 10.0753 20.2656 9.99219L20.2578 9.98438C20.2508 9.98964 20.2495 10.0026 20.2422 10.0078C19.9798 10.1946 19.586 10.2717 19.2109 10.0938L19.1797 10.0781L19.1406 10.0625L19.1328 10.0547C19.0825 10.0607 19.0317 10.0881 18.9766 10.0859C18.9287 10.084 18.8872 10.0546 18.8438 10.0469C18.7608 10.0819 18.672 10.1297 18.5625 10.1406C18.4209 10.1543 18.2914 10.1272 18.1797 10.0938C18.1244 10.0914 18.0731 10.0886 18.0234 10.0781C17.9208 10.1044 17.8052 10.1292 17.6797 10.1172C17.4016 10.0897 17.207 9.95545 17.1016 9.85938C17.0619 9.82318 17.0452 9.77083 17.0156 9.73438C16.9157 9.82012 16.7769 9.92746 16.5781 9.96875C16.4858 10.0493 16.3534 10.1487 16.1641 10.1953C15.7427 10.2977 15.4502 10.1187 15.2734 9.96094L15.1406 9.9375L15.1016 9.92969L15.0703 9.92188C14.9688 9.89985 14.887 9.84495 14.8125 9.80469C14.7027 9.87552 14.5611 9.95043 14.375 9.96875C14.3517 9.97103 14.3272 9.95244 14.3047 9.95312C14.1547 10.0366 13.9621 10.1205 13.7188 10.0938C13.4887 10.0679 13.3221 9.96303 13.2109 9.875C13.0439 9.91992 12.8556 9.94535 12.6562 9.88281C12.6475 9.88007 12.6413 9.87011 12.6328 9.86719C12.4888 9.99797 12.2499 10.169 11.8906 10.1406C11.7782 10.1315 11.6799 10.0975 11.5938 10.0625C11.4408 10.1106 11.2613 10.1437 11.0469 10.0859C10.985 10.0691 10.9334 10.0319 10.8828 10.0078C10.5841 9.98057 10.3759 9.83502 10.2734 9.73438C10.2409 9.70203 10.2283 9.64993 10.2031 9.61719C10.1774 9.61704 10.1515 9.62722 10.125 9.625C10.1118 9.62389 10.0988 9.61877 10.0859 9.61719C10.0823 9.72705 10.0714 9.84312 10.0234 9.96094C9.99764 10.0242 9.94643 10.0676 9.91406 10.1172C9.95351 10.1761 10.0011 10.2387 10.0312 10.3203C10.1236 10.5713 10.1097 10.8397 10.0078 11.0703C9.99506 11.0991 9.95951 11.1151 9.94531 11.1406C9.97504 11.206 10.0001 11.2776 10.0156 11.3594C10.0904 11.4452 10.1704 11.5595 10.2188 11.7109C10.362 12.1636 10.153 12.5241 9.99219 12.6953C9.93467 12.7565 9.86443 12.785 9.8125 12.8203C9.80363 12.8671 9.81356 12.9195 9.79688 12.9688C9.78887 12.9922 9.75921 13.0095 9.75 13.0312C9.84804 13.0911 10.0006 13.2028 10.1094 13.3984C10.2166 13.5924 10.2773 13.8531 10.2109 14.125C10.1509 14.3691 10.0141 14.5283 9.92969 14.6094H9.92188C10.0113 14.7036 10.1295 14.851 10.1797 15.0703C10.2483 15.3745 10.1499 15.6321 10.0391 15.8125C10.025 15.8877 10.0096 15.9652 9.97656 16.0391C9.93713 16.1272 9.87646 16.1903 9.82812 16.25C9.9358 16.3922 10.0605 16.619 10.0391 16.9219C10.031 17.0312 9.98598 17.1192 9.95312 17.2031C9.94543 17.2516 9.9531 17.3024 9.9375 17.3516C9.95622 17.4222 9.96664 17.5013 9.96875 17.5859C9.96913 17.6018 9.96126 17.6174 9.96094 17.6328C10.0189 17.7597 10.0632 17.914 10.0547 18.0938C10.0432 18.3347 9.94858 18.5199 9.85938 18.6406L9.84375 18.6484C9.92163 18.7465 9.99275 18.8818 10.0312 19.0547C10.0786 19.2713 10.0412 19.4571 9.98438 19.6094C10.0311 19.7087 10.069 19.8282 10.0781 19.9688C10.0965 20.2647 9.98246 20.4993 9.875 20.6406C9.77191 20.7758 9.64719 20.8505 9.5625 20.8984C9.59686 21.1527 9.55888 21.3826 9.45312 21.5547C9.43242 21.5882 9.3891 21.6049 9.36719 21.6328L9.375 21.6484C9.36784 21.7523 9.343 21.8476 9.3125 21.9297C9.36412 21.9924 9.42755 22.0624 9.46875 22.1562C9.49809 22.2235 9.50978 22.2926 9.52344 22.3594C9.54895 22.39 9.58349 22.4199 9.60938 22.4609C9.63205 22.4789 9.66493 22.4863 9.6875 22.5078C9.73056 22.549 9.78222 22.6187 9.83594 22.7031C9.93514 22.7972 10.0677 22.9539 10.125 23.1953C10.152 23.3095 10.1573 23.4168 10.1484 23.5156C10.185 23.7466 10.1345 23.9281 10.0625 24.0781C10.0808 24.2095 10.0808 24.3585 10.0312 24.5156C9.92309 24.8538 9.67884 25.0153 9.61719 25.0547C9.60337 25.0635 9.58391 25.0625 9.57031 25.0703C9.6049 25.2141 9.59459 25.3534 9.57031 25.4844C9.61094 25.5568 9.64944 25.6386 9.67188 25.7344C9.6907 25.7433 9.71484 25.7469 9.73438 25.7578C9.78587 25.7865 10.0112 25.9219 10.1484 26.2109C10.23 26.3835 10.2683 26.5951 10.2266 26.8203C10.187 27.0329 10.0886 27.1854 10.0078 27.2812C9.96435 27.3327 9.90237 27.3555 9.85938 27.3906C9.87099 27.4238 9.89765 27.4553 9.90625 27.4922C9.95342 27.696 9.91885 27.8775 9.86719 28.0312C9.9256 28.1382 9.97252 28.2737 9.98438 28.4375C9.99864 28.635 9.94534 28.7972 9.88281 28.9297C9.90574 28.9929 9.9507 29.0558 9.96094 29.1328C9.97588 29.2469 9.95545 29.3501 9.9375 29.4453C9.94243 29.4568 9.95631 29.4646 9.96094 29.4766C10.0542 29.7204 10.0511 29.9921 9.95312 30.2266L9.9375 30.2578L9.92188 30.2969C9.91022 30.3248 9.88031 30.3421 9.86719 30.3672C9.93799 30.5009 9.988 30.661 9.97656 30.8672C9.98779 30.8812 10.0048 30.891 10.0156 30.9062C10.1124 31.0429 10.2105 31.2537 10.2031 31.5156C10.1953 31.7752 10.0869 31.9783 9.99219 32.1016L9.96875 32.1328L9.9375 32.1719C9.90174 32.2182 9.84828 32.2399 9.8125 32.2734C9.82993 32.3295 9.8674 32.3871 9.875 32.4531C9.87917 32.4904 9.85924 32.5271 9.85938 32.5625L9.875 32.5781C9.93061 32.6656 9.97219 32.7743 10 32.8984C10.0853 33.0271 10.1697 33.2051 10.1719 33.4375C10.1743 33.7087 10.0525 33.8981 9.95312 34.0312C9.945 34.0822 9.95377 34.1374 9.9375 34.1875C9.9155 34.2551 9.85771 34.2988 9.82812 34.3516C9.87198 34.4933 9.90477 34.6517 9.875 34.8203C9.83989 35.0162 9.74852 35.1597 9.67188 35.2578C9.71568 35.3353 9.75744 35.4284 9.78125 35.5391C9.82861 35.7604 9.79803 35.9772 9.71875 36.1562C9.66558 36.2763 9.58315 36.3586 9.51562 36.4297C9.57173 36.4947 9.63102 36.587 9.67969 36.7031C9.74683 36.7922 9.82138 36.9112 9.85938 37.0703C9.91904 37.3248 9.87137 37.5751 9.77344 37.7656C9.73715 37.8354 9.67579 37.8784 9.63281 37.9297V37.9375C9.64437 37.9464 9.66011 37.951 9.67188 37.9609C9.77016 38.0444 10.0045 38.283 10.0234 38.6797C10.027 38.7582 10.0039 38.8307 9.99219 38.8984C10.1049 39.048 10.2184 39.268 10.1953 39.5625C10.2278 39.6861 10.2479 39.8294 10.2188 39.9922C10.1676 40.2746 10.0039 40.4478 9.88281 40.5547C9.95229 40.6772 10.0056 40.8416 10.0078 41.0391C10.0095 41.2467 9.94763 41.4121 9.875 41.5391C9.85021 41.6228 9.84011 41.7096 9.79688 41.7812C9.77608 41.8156 9.7332 41.8306 9.71094 41.8594C9.71363 41.8981 9.71294 41.9362 9.71094 41.9766C9.74487 41.9991 9.79187 42.0151 9.82812 42.0469C9.9591 42.1626 10.2536 42.5058 10.1406 43.0156C10.1215 43.1014 10.088 43.1752 10.0547 43.2422L10.0625 43.25C10.0843 43.3498 10.0837 43.4443 10.0781 43.5312C10.1391 43.6806 10.1845 43.8595 10.1484 44.0703C10.1409 44.1138 10.1056 44.1487 10.0938 44.1875C10.1164 44.244 10.159 44.2987 10.1719 44.3672C10.1757 44.3875 10.1615 44.4099 10.1641 44.4297C10.193 44.4826 10.2292 44.5364 10.25 44.6016C10.3583 44.9413 10.2549 45.2069 10.1406 45.3984C10.1492 45.6065 10.1059 45.8092 10 45.9766C9.94848 46.0578 9.8666 46.098 9.8125 46.1484C9.95138 46.3334 10.0988 46.6366 10 47.0156C9.99216 47.0453 9.96292 47.0665 9.95312 47.0938C10.0838 47.3019 10.1744 47.6008 10.0703 47.9297C10.0172 48.0965 9.92203 48.2116 9.84375 48.2969L9.83594 48.3047C9.92685 48.3804 10.0704 48.5173 10.1484 48.7344C10.217 48.8323 10.2903 48.9634 10.3203 49.1328C10.3698 49.4141 10.2851 49.6559 10.1797 49.8281C10.1762 49.8379 10.16 49.8421 10.1562 49.8516L10.1641 49.8594L10.1406 49.8984C10.0945 49.9995 10.0458 50.0791 9.99219 50.1406C10.0676 50.2765 10.1447 50.4508 10.1328 50.6719L10.125 50.6797C10.1353 50.706 10.1556 50.7292 10.1641 50.7578V50.7656C10.5471 50.8745 10.7309 51.2002 10.7422 51.2188C10.7768 51.2758 10.7953 51.3316 10.8125 51.375C10.8882 51.3947 10.9559 51.4223 11.0156 51.4531C11.0581 51.4265 11.0969 51.3891 11.1484 51.3672C11.1922 51.3488 11.2427 51.3402 11.2891 51.3281C11.4516 51.1748 11.7998 50.9489 12.2656 51.0859C12.3613 51.1144 12.43 51.1747 12.5 51.2188C12.5531 51.2288 12.5998 51.256 12.6484 51.2734C12.6575 51.262 12.6619 51.2458 12.6719 51.2344C12.7497 51.1452 12.934 50.9663 13.2344 50.9062C13.5729 50.8399 13.8589 50.9571 14.0312 51.0859C14.1783 51.1959 14.2543 51.3244 14.2891 51.3828C14.3038 51.4078 14.3096 51.4391 14.3203 51.4609C14.3379 51.4631 14.3569 51.4578 14.375 51.4609C14.5364 51.4892 14.6611 51.56 14.7578 51.625C14.9206 51.6091 15.0711 51.6304 15.2031 51.6797C15.2386 51.6574 15.2698 51.6212 15.3125 51.6016C15.3486 51.5706 15.3826 51.5291 15.4297 51.5C15.6047 51.3921 15.8374 51.3459 16.0938 51.3828C16.1912 51.3543 16.2893 51.3342 16.3906 51.3359C16.4163 51.3186 16.4392 51.2895 16.4688 51.2734C16.7349 51.1298 17.0696 51.1133 17.3672 51.25H17.375C17.4276 51.2321 17.4809 51.2124 17.5391 51.2031C17.5933 51.1583 17.6509 51.0999 17.7266 51.0625C17.8983 50.9785 18.114 50.9354 18.3438 50.9766C18.4875 51.0026 18.6044 51.0604 18.6953 51.1172C18.7371 51.1078 18.7817 51.098 18.8281 51.0938C19.315 51.0497 19.6078 51.3463 19.6953 51.4531C19.7006 51.4596 19.706 51.4701 19.7109 51.4766C19.7455 51.465 19.7826 51.4611 19.8203 51.4531L19.8281 51.4375C19.8669 51.3775 20.0954 51.0281 20.5781 50.9844C20.8327 50.962 21.0326 51.0353 21.1797 51.125C21.3215 51.043 21.5113 50.9665 21.75 50.9844C21.7803 50.9867 21.8076 51.0032 21.8359 51.0078C21.9866 50.9232 22.1896 50.8687 22.4219 50.8906C22.658 50.9136 22.8347 51.0142 22.9453 51.1016C22.9724 51.123 22.985 51.1576 23.0078 51.1797C23.0853 51.09 23.2192 50.9572 23.4297 50.8828C23.7444 50.7722 24.0348 50.8546 24.25 50.9766C24.4573 50.8517 24.7549 50.75 25.1016 50.875C25.4262 50.9935 25.5817 51.2314 25.6172 51.2891C25.6533 51.3479 25.6714 51.4053 25.6875 51.4453C25.7037 51.4061 25.7221 51.3595 25.75 51.3125C25.7847 51.2543 25.8839 51.1049 26.0703 50.9844C26.2857 50.8452 26.5827 50.777 26.8906 50.8672C27.3544 50.8401 27.6461 51.1333 27.7266 51.2344C27.7785 51.3 27.8028 51.3707 27.8281 51.4219C27.928 51.4119 28.0353 51.4149 28.1406 51.4375C28.1602 51.4418 28.1767 51.4557 28.1953 51.4609C28.2847 51.4072 28.3967 51.3605 28.5312 51.3359C28.5655 51.3297 28.5999 51.3386 28.6328 51.3359C28.6838 51.2564 28.7921 51.1144 28.9766 51.0078C29.1079 50.9323 29.2867 50.8723 29.4922 50.875C29.6967 50.8783 29.8663 50.9474 29.9922 51.0234C30.2139 51.1576 30.3217 51.3373 30.3516 51.3906C30.3692 51.4223 30.3782 51.4556 30.3906 51.4844C30.4316 51.4805 30.4695 51.4755 30.5078 51.4766H30.5156C30.5456 51.4291 30.581 51.367 30.6328 51.3125C30.7562 51.1839 31.0617 50.9473 31.5078 51.0156C31.5368 51.0202 31.5668 51.0325 31.5938 51.0391C31.7532 51.025 31.9201 51.0413 32.0781 51.1094H32.0859C32.2636 50.9746 32.5538 50.8222 32.9375 50.9219C33.0317 50.9466 33.1172 50.9751 33.1875 51.0156C33.3139 51.0394 33.4122 51.1045 33.5 51.1562C33.576 51.1614 33.6575 51.1558 33.7344 51.1797C33.9224 51.2386 34.0522 51.3434 34.1328 51.4219C34.1788 51.394 34.2304 51.3666 34.2891 51.3438C34.3105 51.2967 34.3682 51.1849 34.4766 51.0703C34.5929 50.9484 34.8828 50.7188 35.3125 50.7656C35.6718 50.8048 35.8823 51.0146 35.9688 51.1172C36.1315 51.0356 36.3435 50.9727 36.6016 51.0234C36.9721 51.0967 37.1638 51.3457 37.2188 51.4219C37.3082 51.5459 37.3427 51.6706 37.3594 51.7266C37.4232 51.6391 37.5187 51.5354 37.6562 51.4531C37.8086 51.3621 38.007 51.3156 38.2266 51.3281C38.3673 51.2886 38.5349 51.2747 38.7266 51.3203L38.7422 51.3281C38.8471 51.2044 39.0605 51.0119 39.4062 50.9766C39.8896 50.9288 40.1738 51.2231 40.2734 51.3438C40.3116 51.3355 40.3485 51.3164 40.3906 51.3125C40.4966 51.3027 40.5907 51.3254 40.6797 51.3438C40.7983 51.2307 40.9923 51.0786 41.2734 51.0547C41.3364 51.0023 41.4166 50.9492 41.5156 50.9062C41.7508 50.8044 42.0117 50.8049 42.25 50.8906C42.4371 50.7662 42.7172 50.6429 43.0703 50.7422C43.1084 50.7529 43.1379 50.783 43.1719 50.7969C43.185 50.7933 43.1973 50.7844 43.2109 50.7812C43.5999 50.6922 43.9098 50.8505 44.0781 50.9922C44.1387 51.0434 44.1737 51.1082 44.2109 51.1562C44.3907 51.1156 44.5684 51.1263 44.7344 51.1797C44.778 51.1181 44.8197 51.0338 44.8984 50.9688C45.0053 50.8807 45.1831 50.7783 45.4219 50.75C45.4537 50.7463 45.4849 50.7507 45.5156 50.75C45.6315 50.7201 45.7645 50.7117 45.9141 50.7344C46.0037 50.748 46.0853 50.7669 46.1562 50.7969L46.2344 50.7812L46.2656 50.7734C46.6571 50.6754 46.9415 50.8386 47.1172 50.9766C47.1849 50.9546 47.2536 50.9132 47.3359 50.9062C47.4474 50.8969 47.5494 50.909 47.6406 50.9297C47.7963 50.8272 48.029 50.7317 48.3125 50.7656C48.6088 50.802 48.8027 50.9588 48.8984 51.0547C48.9145 51.0708 48.9233 51.0931 48.9375 51.1094H48.9453C49.0325 51.0528 49.1479 51.0135 49.2812 50.9844C49.2948 50.9754 49.3058 50.9617 49.3203 50.9531C49.5015 50.8462 49.7556 50.7807 50.0312 50.8359C50.2169 50.8734 50.3494 50.9636 50.4453 51.0391C50.5728 50.9415 50.7577 50.849 51 50.8359C51.1226 50.8296 51.2318 50.8475 51.3281 50.875C51.3802 50.6714 51.4939 50.5257 51.5859 50.4297C51.5224 50.328 51.459 50.1977 51.4375 50.0312C51.4302 49.973 51.4351 49.9138 51.4375 49.8594C51.3512 49.7493 51.2532 49.5827 51.2266 49.3594C51.2079 49.198 51.2248 49.0524 51.2656 48.9297C51.2233 48.848 51.1912 48.7518 51.1719 48.6406C51.1309 48.4022 51.1695 48.2005 51.2422 48.0469C51.2503 47.9566 51.2463 47.8636 51.2812 47.7734C51.3003 47.7248 51.3285 47.6809 51.3516 47.6406C51.2702 47.5834 51.1084 47.4595 51.0078 47.2344C50.936 47.0732 50.9177 46.906 50.9297 46.75C50.8873 46.6448 50.8583 46.5253 50.8594 46.3828C50.8493 46.3398 50.8248 46.298 50.8203 46.25C50.7999 46.0274 50.8599 45.8339 50.9375 45.6875C50.8742 45.4866 50.8571 45.2657 50.9375 45.0469C50.9554 44.9981 50.9778 44.9547 51 44.9141C51.0065 44.8689 51.0022 44.8196 51.0156 44.7734C51.0179 44.7655 51.021 44.7578 51.0234 44.75C51.0054 44.6041 51.0042 44.4527 51.0547 44.3047C51.0727 44.2522 51.1021 44.2074 51.125 44.1641C51.1361 44.1149 51.1396 44.0663 51.1562 44.0234C51.0587 43.9313 50.9131 43.7582 50.8594 43.4922C50.7846 43.1179 50.9348 42.8196 51.0703 42.6562L51.0859 42.6406C51.0619 42.425 51.1056 42.2281 51.1875 42.0703C51.2147 42.0183 51.2578 41.9789 51.2891 41.9375C51.2124 41.8421 51.1488 41.7155 51.1094 41.5547C51.0774 41.5207 51.0297 41.4959 51 41.4531C50.8858 41.2881 50.7903 41.0361 50.8359 40.7344C50.8535 40.6195 50.8881 40.5205 50.9297 40.4375L50.9219 40.4141C50.9115 40.363 50.9169 40.313 50.9141 40.2656C50.8859 40.1629 50.8559 40.0517 50.8672 39.9219C50.8753 39.8301 50.9113 39.7532 50.9375 39.6797C50.9341 39.4752 50.9833 39.3074 51.0547 39.1797C51.0132 38.9516 51.0413 38.7362 51.1328 38.5547C51.0511 38.4544 50.9688 38.3161 50.9297 38.1328C50.8518 37.7637 51.0037 37.4883 51.1328 37.3203C51.0349 37.1967 50.9179 37.0118 50.9062 36.75C50.8907 36.3887 51.0633 36.1387 51.1797 36.0156C51.1391 35.895 51.0996 35.7704 51.1094 35.6328C50.9606 35.4808 50.774 35.2229 50.8203 34.8281C50.8433 34.632 50.9242 34.4834 51 34.375C50.9579 34.3072 50.9111 34.229 50.8828 34.1328C50.8121 33.892 50.8379 33.643 50.9297 33.4375C50.9611 33.3676 51.0155 33.3186 51.0547 33.2656C51.0565 33.2106 51.0582 33.1534 51.0703 33.0938C51.107 32.9132 51.1789 32.7721 51.2578 32.6719C51.2329 32.5849 51.2174 32.4913 51.2188 32.3906C51.0585 32.2571 50.7652 31.9613 50.8516 31.4609C50.8929 31.2246 51.0037 31.0523 51.0938 30.9531C51.1335 30.6586 51.3016 30.4597 51.3984 30.3672C51.4145 30.352 51.4373 30.3413 51.4531 30.3281C51.4216 30.2654 51.3866 30.1961 51.3672 30.1172C51.3412 30.0108 51.3468 29.9116 51.3516 29.8203C51.2836 29.7509 51.2061 29.6547 51.1484 29.5234C51.1369 29.4969 51.1341 29.4645 51.125 29.4375C51.0027 29.3422 50.7724 29.1278 50.7344 28.75L50.7266 28.7188V28.6797C50.6828 28.2447 50.9192 27.9557 51.0391 27.8438C51.1461 27.7441 51.2529 27.688 51.3047 27.6641C51.2575 27.4412 51.3026 27.2398 51.375 27.0703C51.3012 26.9342 51.2425 26.758 51.25 26.5547C51.2562 26.3961 51.3048 26.2588 51.3594 26.1484C51.3344 26.0994 51.3227 26.0442 51.3047 25.9844H51.2969C51.2309 25.9407 50.9835 25.7698 50.8828 25.4297C50.7547 24.9929 50.9535 24.639 51.1094 24.4688C51.1262 24.4505 51.1472 24.4377 51.1641 24.4219L51.1406 24.4141C51.0272 24.2999 50.8409 24.0506 50.8516 23.6797C50.8627 23.3154 51.0585 23.0765 51.1641 22.9766C51.2122 22.9314 51.2736 22.9129 51.3203 22.8828C51.3242 22.8632 51.3389 22.8467 51.3438 22.8281C51.3374 22.7974 51.3239 22.7676 51.3203 22.7344C51.3016 22.5614 51.3222 22.4137 51.3672 22.2891C51.2885 22.1967 51.1931 22.0645 51.1484 21.875C51.1109 21.7143 51.1091 21.5592 51.1406 21.4219C51.1147 21.3466 51.1006 21.258 51.0938 21.1641C51.0711 20.8424 51.2064 20.6105 51.3203 20.4688C51.2231 20.4038 50.8553 20.132 50.875 19.6016C50.8866 19.3021 51.0176 19.0932 51.1406 18.9609C51.079 18.8847 51.0202 18.7829 50.9766 18.6562C50.9683 18.6321 50.975 18.6022 50.9688 18.5781C50.9131 18.5028 50.8506 18.409 50.8125 18.2891C50.611 17.6531 51.0742 17.2576 51.1797 17.1797C51.2101 17.1575 51.245 17.1415 51.2734 17.125C51.2556 17.0909 51.2179 17.0624 51.2031 17.0234C51.1872 16.981 51.1896 16.9344 51.1797 16.8906C51.1522 16.8499 51.1094 16.8159 51.0859 16.7656C50.9466 16.4649 50.9732 16.1544 51.0859 15.9141C50.9446 15.7517 50.7627 15.4363 50.8594 15.0234C50.8698 14.9796 50.8995 14.9449 50.9141 14.9062C50.8625 14.8271 50.812 14.7292 50.7812 14.6094C50.7187 14.3623 50.7599 14.156 50.8281 13.9922C50.8247 13.9723 50.8148 13.9506 50.8125 13.9297C50.7799 13.6316 50.8864 13.4015 50.9922 13.25C50.9077 13.1484 50.8215 13.0078 50.7812 12.8203C50.6898 12.3937 50.8902 12.0844 51.0312 11.9297C51.0427 11.8361 51.0643 11.7434 51.1016 11.6562C51.1646 11.5094 51.2576 11.4129 51.3281 11.3438C51.2666 11.2633 51.204 11.1619 51.1641 11.0312C51.0991 10.8184 51.1201 10.6226 51.1719 10.4531C51.1101 10.2384 51.0935 10.0026 51.1953 9.77344C51.1987 9.7659 51.1996 9.75732 51.2031 9.75C51.1653 9.69542 51.1075 9.64929 51.0781 9.57812C51.0671 9.55117 51.0633 9.51997 51.0547 9.49219C51.0138 9.49857 50.9744 9.51445 50.9297 9.51562ZM17.3281 9.82031C17.3479 9.82743 17.3695 9.82992 17.3906 9.83594C17.3687 9.83144 17.3488 9.82602 17.3281 9.82031ZM7.46094 7.39062L7.63281 7.40625L7.625 7.35938L7.46094 7.39062ZM7.63281 7.40625L7.46094 7.39062L7.625 7.35938L7.63281 7.40625Z" fill="black"/>
<path d="M9.07011 16.0471C9.13091 16.0471 9.19171 16.0471 10.8037 15.0136C12.4158 13.98 15.5772 11.9129 17.3578 10.8177C19.8574 9.28014 20.9789 9.41472 21.9637 9.353C22.1031 9.34427 22.0291 9.59527 20.7818 11.4523C19.5346 13.3094 17.1027 16.8356 15.6371 18.8954C13.7983 21.4796 12.4563 22.7329 11.0451 24.0824C9.53124 25.5301 8.70349 26.425 8.51833 26.5475C8.46681 26.5816 8.69796 26.67 11.923 24.1478C15.148 21.6257 21.41 16.5188 25.0919 13.5839C28.7738 10.6491 29.6858 10.0411 28.3925 11.8254C27.0992 13.6097 23.5729 17.8047 20.3885 21.2121C17.204 24.6195 14.4681 27.1122 12.6028 28.913C10.7374 30.7139 9.82547 31.7475 9.44687 32.3103C9.06827 32.8731 9.25066 32.9339 13.722 29.4998C18.1933 26.0657 26.9481 19.1349 31.6101 15.382C36.2721 11.6292 36.5761 11.2644 37.0367 10.8029C37.4973 10.3414 38.1053 9.79424 36.3514 11.7315C34.5975 13.6687 30.4633 18.1068 26.1752 22.1563C21.8872 26.2057 17.5706 29.732 14.6174 32.3085C11.6641 34.885 10.205 36.4049 15.5026 32.3545C20.8002 28.3041 32.8988 18.6374 39.2226 13.5664C45.5464 8.4954 45.7288 8.31301 45.7316 8.27984C45.7343 8.24668 45.552 8.36828 42.0838 11.7747C38.6156 15.1812 31.8671 21.8689 25.7156 27.1987C19.564 32.5286 14.2139 36.298 11.3362 38.3614C8.45846 40.4248 8.21527 40.668 8.51557 40.6109C8.81587 40.5538 9.66703 40.189 15.5772 36.9613C21.4874 33.7335 32.4309 27.6538 38.9196 23.8531C45.4083 20.0523 47.1106 18.7148 48.3219 17.6002C49.5332 16.4856 50.202 15.6344 50.6681 14.9224C51.1342 14.2103 51.3774 13.6631 50.0132 14.2324C48.6489 14.8017 45.6699 16.504 39.5146 20.9984C33.3594 25.4927 24.1183 32.7276 18.2633 37.5794C12.4084 42.4311 10.2197 44.6806 9.03142 45.9306C7.84312 47.1807 7.72153 47.3631 7.93247 47.3962C8.14342 47.4294 8.69059 47.3078 14.353 43.6277C20.0154 39.9477 30.7765 32.7128 36.7152 28.621C42.654 24.5292 43.4443 23.7996 44.4595 22.9982C48.3441 19.9314 49.7212 18.9967 50.2729 18.5987C50.5393 18.4066 50.7031 18.14 46.9669 21.6625C43.2306 25.1851 35.5702 32.4807 29.7088 37.7894C23.8475 43.0981 20.0172 46.1987 17.7705 48.0696C14.9311 50.434 13.8049 51.5378 13.0965 52.1835C12.9573 52.3104 13.4217 52.1605 17.1368 49.1483C20.8518 46.1361 27.8435 40.2996 33.7859 35.7122C39.7283 31.1248 44.4097 27.9633 47.0037 26.1523C50.0151 24.0499 50.7031 23.3575 51.347 22.9282C51.6261 22.7421 51.8085 22.6206 47.2819 27.1177C42.7553 31.6148 33.5142 40.7344 28.7232 45.5235C23.9322 50.3126 23.8714 50.495 27.3055 47.9747C30.7396 45.4544 37.6705 40.2259 42.1833 36.9548C46.696 33.6838 48.5808 32.5286 49.7037 31.8119C50.8266 31.0953 51.1305 30.8521 51.3783 30.6356C51.6261 30.4191 51.8085 30.2367 49.1058 32.7267C46.4031 35.2166 40.8098 40.3843 37.7156 43.3201C34.1234 46.7283 32.663 48.4611 32.768 48.7817C33.2124 50.138 37.4936 45.3328 41.286 42.678C45.0785 40.0232 49.0303 37.4697 49.2118 37.887C49.3932 38.3043 45.6846 41.7697 42.619 44.4365C39.5533 47.1033 37.243 48.8664 35.8705 49.9571C34.0961 51.3671 33.575 52.0315 33.6634 52.2784C34.0103 53.2468 37.361 50.8764 41.555 48.6435C43.857 47.4179 46.2963 45.6202 48.2187 44.1353C53.1358 40.3374 53.2842 39.4466 53.4086 39.2614C54.0635 38.2863 51.1453 41.7071 49.4255 44.0395C46.3375 48.2273 44.9366 50.3071 44.2614 51.477C44.0819 51.788 43.8939 52.1494 44.0431 52.2158C45.4451 52.8389 47.0111 49.3491 48.0944 48.1976C48.7392 47.3686 49.4761 46.6335 50.7326 45.284C51.0126 44.9736 51.1342 44.7912 51.2595 44.6032" stroke="#216900" stroke-width="3" stroke-linecap="round"/>
</svg>
